<?xml version="1.0" standalone="no"?>
<svg width="1056" height="816" xmlns="http://www.w3.org/2000/svg" id="svgvm1"><g transform="translate(5,5)" style="font-family: sans-serif;"><g><g transform="translate(0, 0)"><g transform="translate(0,5)"><rect class="header-box" width="509.5897435897436" height="86" stroke="black" fill="white" rx="5"/><rect class="label-cover" x="8" y="-9.5" width="35.1953125" height="17.5" fill="white" rx="5"/><text class="header-box-label" x="10" font-size="12" fill="black" y="3">about</text><g class="header-box-content" fill="black" transform="translate(5, 0)"><g transform="translate(0, 2.0975609756097526)"><text font-size="12"><tspan x="4" y="23.426829268292682">Password Spray</tspan></text><line x1="0" x2="499.5897435897436" y1="39.853658536585364" y2="39.853658536585364" stroke="#dddddd"/></g><g transform="translate(0, 44.048780487804876)"><text font-size="12"><tspan x="4" y="23.426829268292682">V2</tspan></text></g></g></g></g><g transform="translate(536.4102564102565, 0)"><g transform="translate(0,5)"><rect class="header-box" width="509.5897435897436" height="86" stroke="black" fill="white" rx="5"/><rect class="label-cover" x="8" y="-9.5" width="53.359375" height="17.5" fill="white" rx="5"/><text class="header-box-label" x="10" font-size="12" fill="black" y="3">platforms</text><g class="header-box-content" fill="black" transform="translate(5, 0)"><g transform="translate(0, 4.095238095238102)"><text font-size="12"><tspan x="4" y="42.4047619047619">Office 365, Azure AD, IaaS, SaaS, Google Workspace</tspan></text></g></g></g></g></g><g transform="translate(0,97)"><g><g class="tactic initial-access" transform="translate(0, 0)"><g class="techniques"><g class="technique T1190" transform="translate(0, 47.333333333333336)"><rect class="cell" height="47.333333333333336" width="95.0909090909091" fill="#ffffff" stroke="#6B7279"/><polygon class="sidebar" transform="translate(0, 47.333333333333336)" points="0,0 12,0 12,0" fill="#6B7279" visibility="hidden"/><text font-size="7.015656565656565" fill="#000000"><tspan x="4" y="8.791666666666668">T1190:</tspan><tspan x="4" y="20.375">Exploit</tspan><tspan x="4" y="31.958333333333336">Public-Facing</tspan><tspan x="4" y="43.54166666666667">Application</tspan></text></g><g class="technique T1566" transform="translate(0, 94.66666666666667)"><rect class="cell" height="47.333333333333336" width="95.0909090909091" fill="#ffffff" stroke="#6B7279"/><polygon class="sidebar" transform="translate(0, 47.333333333333336)" points="0,0 12,0 12,12" fill="#6B7279" visibility="hidden"/><text font-size="7.015656565656565" fill="#000000"><tspan x="4" y="19.916666666666668">T1566:</tspan><tspan x="4" y="34.41666666666667">Phishing</tspan></text></g><g class="technique T1199" transform="translate(0, 142)"><rect class="cell" height="47.333333333333336" width="95.0909090909091" fill="#ffffff" stroke="#6B7279"/><polygon class="sidebar" transform="translate(0, 47.333333333333336)" points="0,0 12,0 12,0" fill="#6B7279" visibility="hidden"/><text font-size="7.015656565656565" fill="#000000"><tspan x="4" y="12.5">T1199:</tspan><tspan x="4" y="27.166666666666668">Trusted</tspan><tspan x="4" y="41.83333333333333">Relationship</tspan></text></g><g class="technique T1078" transform="translate(0, 189.33333333333334)"><rect class="cell" height="47.333333333333336" width="95.0909090909091" fill="#ffffff" stroke="#6B7279"/><polygon class="sidebar" transform="translate(0, 47.333333333333336)" points="0,0 12,0 12,12" fill="#6B7279" visibility="hidden"/><text font-size="7.015656565656565" fill="#000000"><tspan x="4" y="12.5">T1078:</tspan><tspan x="4" y="27.166666666666668">Valid</tspan><tspan x="4" y="41.83333333333333">Accounts</tspan></text></g></g><g class="subtechniques"/><g class="tactic-label"><text font-size="10.523484848484848" fill="black" font-weight="bold"><tspan text-anchor="middle" x="47.54545454545455" y="19.916666666666668">Initial</tspan><tspan text-anchor="middle" x="47.54545454545455" y="34.41666666666667">Access</tspan></text></g></g><g class="tactic execution" transform="translate(95.0909090909091, 0)"><g class="techniques"><g class="technique T1651" transform="translate(0, 47.333333333333336)"><rect class="cell" height="47.333333333333336" width="95.0909090909091" fill="#ffffff" stroke="#6B7279"/><polygon class="sidebar" transform="translate(0, 47.333333333333336)" points="0,0 12,0 12,0" fill="#6B7279" visibility="hidden"/><text font-size="7.015656565656565" fill="#000000"><tspan x="4" y="11.5">T1651: Cloud</tspan><tspan x="4" y="26.166666666666668">Administration</tspan><tspan x="4" y="40.83333333333333">Command</tspan></text></g><g class="technique T1059" transform="translate(0, 94.66666666666667)"><rect class="cell" height="47.333333333333336" width="95.0909090909091" fill="#ffffff" stroke="#6B7279"/><polygon class="sidebar" transform="translate(0, 47.333333333333336)" points="0,0 12,0 12,12" fill="#6B7279" visibility="hidden"/><text font-size="7.015656565656565" fill="#000000"><tspan x="4" y="8.791666666666668">T1059:</tspan><tspan x="4" y="20.375">Command</tspan><tspan x="4" y="31.958333333333336">and Scripting</tspan><tspan x="4" y="43.54166666666667">Interpreter</tspan></text></g><g class="technique T1648" transform="translate(0, 142)"><rect class="cell" height="47.333333333333336" width="95.0909090909091" fill="#ffffff" stroke="#6B7279"/><polygon class="sidebar" transform="translate(0, 47.333333333333336)" points="0,0 12,0 12,0" fill="#6B7279" visibility="hidden"/><text font-size="7.015656565656565" fill="#000000"><tspan x="4" y="12.5">T1648:</tspan><tspan x="4" y="27.166666666666668">Serverless</tspan><tspan x="4" y="41.83333333333333">Execution</tspan></text></g><g class="technique T1072" transform="translate(0, 189.33333333333334)"><rect class="cell" height="47.333333333333336" width="95.0909090909091" fill="#ffffff" stroke="#6B7279"/><polygon class="sidebar" transform="translate(0, 47.333333333333336)" points="0,0 12,0 12,0" fill="#6B7279" visibility="hidden"/><text font-size="7.015656565656565" fill="#000000"><tspan x="4" y="8.791666666666668">T1072:</tspan><tspan x="4" y="20.375">Software</tspan><tspan x="4" y="31.958333333333336">Deployment</tspan><tspan x="4" y="43.54166666666667">Tools</tspan></text></g><g class="technique T1204" transform="translate(0, 236.66666666666666)"><rect class="cell" height="47.333333333333336" width="95.0909090909091" fill="#ffffff" stroke="#6B7279"/><polygon class="sidebar" transform="translate(0, 47.333333333333336)" points="0,0 12,0 12,12" fill="#6B7279" visibility="hidden"/><text font-size="7.015656565656565" fill="#000000"><tspan x="4" y="12.5">T1204:</tspan><tspan x="4" y="27.166666666666668">User</tspan><tspan x="4" y="41.83333333333333">Execution</tspan></text></g></g><g class="subtechniques"/><g class="tactic-label"><text font-size="10.523484848484848" fill="black" font-weight="bold"><tspan text-anchor="middle" x="47.54545454545455" y="27.166666666666668">Execution</tspan></text></g></g><g class="tactic persistence" transform="translate(190.1818181818182, 0)"><g class="techniques"><g class="technique T1098" transform="translate(0, 47.333333333333336)"><rect class="cell" height="47.333333333333336" width="95.0909090909091" fill="#ffffff" stroke="#6B7279"/><polygon class="sidebar" transform="translate(0, 47.333333333333336)" points="0,0 12,0 12,12" fill="#6B7279" visibility="hidden"/><text font-size="7.015656565656565" fill="#000000"><tspan x="4" y="12.5">T1098:</tspan><tspan x="4" y="27.166666666666668">Account</tspan><tspan x="4" y="41.83333333333333">Manipulation</tspan></text></g><g class="technique T1136" transform="translate(0, 94.66666666666667)"><rect class="cell" height="47.333333333333336" width="95.0909090909091" fill="#ffffff" stroke="#6B7279"/><polygon class="sidebar" transform="translate(0, 47.333333333333336)" points="0,0 12,0 12,12" fill="#6B7279" visibility="hidden"/><text font-size="7.015656565656565" fill="#000000"><tspan x="4" y="12.5">T1136:</tspan><tspan x="4" y="27.166666666666668">Create</tspan><tspan x="4" y="41.83333333333333">Account</tspan></text></g><g class="technique T1546" transform="translate(0, 142)"><rect class="cell" height="47.333333333333336" width="95.0909090909091" fill="#ffffff" stroke="#6B7279"/><polygon class="sidebar" transform="translate(0, 47.333333333333336)" points="0,0 12,0 12,0" fill="#6B7279" visibility="hidden"/><text font-size="7.015656565656565" fill="#000000"><tspan x="4" y="12.5">T1546: Event</tspan><tspan x="4" y="27.166666666666668">Triggered</tspan><tspan x="4" y="41.83333333333333">Execution</tspan></text></g><g class="technique T1525" transform="translate(0, 189.33333333333334)"><rect class="cell" height="47.333333333333336" width="95.0909090909091" fill="#ffffff" stroke="#6B7279"/><polygon class="sidebar" transform="translate(0, 47.333333333333336)" points="0,0 12,0 12,0" fill="#6B7279" visibility="hidden"/><text font-size="7.015656565656565" fill="#000000"><tspan x="4" y="8.791666666666668">T1525:</tspan><tspan x="4" y="20.375">Implant</tspan><tspan x="4" y="31.958333333333336">Internal</tspan><tspan x="4" y="43.54166666666667">Image</tspan></text></g><g class="technique T1556" transform="translate(0, 236.66666666666666)"><rect class="cell" height="47.333333333333336" width="95.0909090909091" fill="#ffffff" stroke="#6B7279"/><polygon class="sidebar" transform="translate(0, 47.333333333333336)" points="0,0 12,0 12,12" fill="#6B7279" visibility="hidden"/><text font-size="7.015656565656565" fill="#000000"><tspan x="4" y="11.5">T1556: Modify</tspan><tspan x="4" y="26.166666666666668">Authentication</tspan><tspan x="4" y="40.83333333333333">Process</tspan></text></g><g class="technique T1078" transform="translate(0, 284)"><rect class="cell" height="47.333333333333336" width="95.0909090909091" fill="#ffffff" stroke="#6B7279"/><polygon class="sidebar" transform="translate(0, 47.333333333333336)" points="0,0 12,0 12,12" fill="#6B7279" visibility="hidden"/><text font-size="7.015656565656565" fill="#000000"><tspan x="4" y="12.5">T1078:</tspan><tspan x="4" y="27.166666666666668">Valid</tspan><tspan x="4" y="41.83333333333333">Accounts</tspan></text></g></g><g class="subtechniques"/><g class="tactic-label"><text font-size="10.523484848484848" fill="black" font-weight="bold"><tspan text-anchor="middle" x="47.54545454545455" y="27.166666666666668">Persistence</tspan></text></g></g><g class="tactic privilege-escalation" transform="translate(285.27272727272725, 0)"><g class="techniques"><g class="technique T1548" transform="translate(0, 47.333333333333336)"><rect class="cell" height="47.333333333333336" width="95.0909090909091" fill="#ffffff" stroke="#6B7279"/><polygon class="sidebar" transform="translate(0, 47.333333333333336)" points="0,0 12,0 12,12" fill="#6B7279" visibility="hidden"/><text font-size="7.015656565656565" fill="#000000"><tspan x="4" y="8.791666666666668">T1548: Abuse</tspan><tspan x="4" y="20.375">Elevation</tspan><tspan x="4" y="31.958333333333336">Control</tspan><tspan x="4" y="43.54166666666667">Mechanism</tspan></text></g><g class="technique T1098" transform="translate(0, 94.66666666666667)"><rect class="cell" height="47.333333333333336" width="95.0909090909091" fill="#ffffff" stroke="#6B7279"/><polygon class="sidebar" transform="translate(0, 47.333333333333336)" points="0,0 12,0 12,12" fill="#6B7279" visibility="hidden"/><text font-size="7.015656565656565" fill="#000000"><tspan x="4" y="12.5">T1098:</tspan><tspan x="4" y="27.166666666666668">Account</tspan><tspan x="4" y="41.83333333333333">Manipulation</tspan></text></g><g class="technique T1546" transform="translate(0, 142)"><rect class="cell" height="47.333333333333336" width="95.0909090909091" fill="#ffffff" stroke="#6B7279"/><polygon class="sidebar" transform="translate(0, 47.333333333333336)" points="0,0 12,0 12,0" fill="#6B7279" visibility="hidden"/><text font-size="7.015656565656565" fill="#000000"><tspan x="4" y="12.5">T1546: Event</tspan><tspan x="4" y="27.166666666666668">Triggered</tspan><tspan x="4" y="41.83333333333333">Execution</tspan></text></g><g class="technique T1078" transform="translate(0, 189.33333333333334)"><rect class="cell" height="47.333333333333336" width="95.0909090909091" fill="#ffffff" stroke="#6B7279"/><polygon class="sidebar" transform="translate(0, 47.333333333333336)" points="0,0 12,0 12,12" fill="#6B7279" visibility="hidden"/><text font-size="7.015656565656565" fill="#000000"><tspan x="4" y="12.5">T1078:</tspan><tspan x="4" y="27.166666666666668">Valid</tspan><tspan x="4" y="41.83333333333333">Accounts</tspan></text></g></g><g class="subtechniques"/><g class="tactic-label"><text font-size="10.523484848484848" fill="black" font-weight="bold"><tspan text-anchor="middle" x="47.54545454545455" y="19.916666666666668">Privilege</tspan><tspan text-anchor="middle" x="47.54545454545455" y="34.41666666666667">Escalation</tspan></text></g></g><g class="tactic defense-evasion" transform="translate(380.3636363636364, 0)"><g class="techniques"><g class="technique T1548" transform="translate(0, 47.333333333333336)"><rect class="cell" height="47.333333333333336" width="95.0909090909091" fill="#ffffff" stroke="#6B7279"/><polygon class="sidebar" transform="translate(0, 47.333333333333336)" points="0,0 12,0 12,12" fill="#6B7279" visibility="hidden"/><text font-size="7.015656565656565" fill="#000000"><tspan x="4" y="8.791666666666668">T1548: Abuse</tspan><tspan x="4" y="20.375">Elevation</tspan><tspan x="4" y="31.958333333333336">Control</tspan><tspan x="4" y="43.54166666666667">Mechanism</tspan></text></g><g class="technique T1211" transform="translate(0, 94.66666666666667)"><rect class="cell" height="47.333333333333336" width="95.0909090909091" fill="#ffffff" stroke="#6B7279"/><polygon class="sidebar" transform="translate(0, 47.333333333333336)" points="0,0 12,0 12,0" fill="#6B7279" visibility="hidden"/><text font-size="7.015656565656565" fill="#000000"><tspan x="4" y="8.791666666666668">T1211:</tspan><tspan x="4" y="20.375">Exploitation</tspan><tspan x="4" y="31.958333333333336">for Defense</tspan><tspan x="4" y="43.54166666666667">Evasion</tspan></text></g><g class="technique T1562" transform="translate(0, 142)"><rect class="cell" height="47.333333333333336" width="95.0909090909091" fill="#ffffff" stroke="#6B7279"/><polygon class="sidebar" transform="translate(0, 47.333333333333336)" points="0,0 12,0 12,12" fill="#6B7279" visibility="hidden"/><text font-size="7.015656565656565" fill="#000000"><tspan x="4" y="12.5">T1562:</tspan><tspan x="4" y="27.166666666666668">Impair</tspan><tspan x="4" y="41.83333333333333">Defenses</tspan></text></g><g class="technique T1656" transform="translate(0, 189.33333333333334)"><rect class="cell" height="47.333333333333336" width="95.0909090909091" fill="#ffffff" stroke="#6B7279"/><polygon class="sidebar" transform="translate(0, 47.333333333333336)" points="0,0 12,0 12,0" fill="#6B7279" visibility="hidden"/><text font-size="7.015656565656565" fill="#000000"><tspan x="4" y="18.916666666666668">T1656:</tspan><tspan x="4" y="33.41666666666667">Impersonation</tspan></text></g><g class="technique T1556" transform="translate(0, 236.66666666666666)"><rect class="cell" height="47.333333333333336" width="95.0909090909091" fill="#ffffff" stroke="#6B7279"/><polygon class="sidebar" transform="translate(0, 47.333333333333336)" points="0,0 12,0 12,12" fill="#6B7279" visibility="hidden"/><text font-size="7.015656565656565" fill="#000000"><tspan x="4" y="11.5">T1556: Modify</tspan><tspan x="4" y="26.166666666666668">Authentication</tspan><tspan x="4" y="40.83333333333333">Process</tspan></text></g><g class="technique T1578" transform="translate(0, 284)"><rect class="cell" height="47.333333333333336" width="95.0909090909091" fill="#ffffff" stroke="#6B7279"/><polygon class="sidebar" transform="translate(0, 47.333333333333336)" points="0,0 12,0 12,12" fill="#6B7279" visibility="hidden"/><text font-size="7.015656565656565" fill="#000000"><tspan x="4" y="11.5">T1578: Modify</tspan><tspan x="4" y="26.166666666666668">Cloud Compute</tspan><tspan x="4" y="40.83333333333333">Infrastructure</tspan></text></g><g class="technique T1666" transform="translate(0, 331.3333333333333)"><rect class="cell" height="47.333333333333336" width="95.0909090909091" fill="#ffffff" stroke="#6B7279"/><polygon class="sidebar" transform="translate(0, 47.333333333333336)" points="0,0 12,0 12,0" fill="#6B7279" visibility="hidden"/><text font-size="7.015656565656565" fill="#000000"><tspan x="4" y="8.791666666666668">T1666:</tspan><tspan x="4" y="20.375">Modify Cloud</tspan><tspan x="4" y="31.958333333333336">Resource</tspan><tspan x="4" y="43.54166666666667">Hierarchy</tspan></text></g><g class="technique T1535" transform="translate(0, 378.6666666666667)"><rect class="cell" height="47.333333333333336" width="95.0909090909091" fill="#ffffff" stroke="#6B7279"/><polygon class="sidebar" transform="translate(0, 47.333333333333336)" points="0,0 12,0 12,0" fill="#6B7279" visibility="hidden"/><text font-size="7.015656565656565" fill="#000000"><tspan x="4" y="11.5">T1535:</tspan><tspan x="4" y="26.166666666666668">Unused/Unsupported</tspan><tspan x="4" y="40.83333333333333">Cloud Regions</tspan></text></g><g class="technique T1550" transform="translate(0, 426)"><rect class="cell" height="47.333333333333336" width="95.0909090909091" fill="#ffffff" stroke="#6B7279"/><polygon class="sidebar" transform="translate(0, 47.333333333333336)" points="0,0 12,0 12,12" fill="#6B7279" visibility="hidden"/><text font-size="7.015656565656565" fill="#000000"><tspan x="4" y="8.791666666666668">T1550:</tspan><tspan x="4" y="20.375">Use Alternate</tspan><tspan x="4" y="31.958333333333336">Authentication</tspan><tspan x="4" y="43.54166666666667">Material</tspan></text></g><g class="technique T1078" transform="translate(0, 473.3333333333333)"><rect class="cell" height="47.333333333333336" width="95.0909090909091" fill="#ffffff" stroke="#6B7279"/><polygon class="sidebar" transform="translate(0, 47.333333333333336)" points="0,0 12,0 12,12" fill="#6B7279" visibility="hidden"/><text font-size="7.015656565656565" fill="#000000"><tspan x="4" y="12.5">T1078:</tspan><tspan x="4" y="27.166666666666668">Valid</tspan><tspan x="4" y="41.83333333333333">Accounts</tspan></text></g></g><g class="subtechniques"/><g class="tactic-label"><text font-size="10.523484848484848" fill="black" font-weight="bold"><tspan text-anchor="middle" x="47.54545454545455" y="19.916666666666668">Defense</tspan><tspan text-anchor="middle" x="47.54545454545455" y="34.41666666666667">Evasion</tspan></text></g></g><g class="tactic credential-access" transform="translate(475.4545454545455, 0)"><g class="techniques"><g class="technique T1110" transform="translate(0, 47.333333333333336)"><rect class="cell" height="47.333333333333336" width="95.0909090909091" fill="#8ec843" stroke="#6B7279"/><polygon class="sidebar" transform="translate(0, 47.333333333333336)" points="0,0 12,0 12,12" fill="#6B7279" visibility="hidden"/><text font-size="7.015656565656565" fill="black"><tspan x="4" y="12.5">T1110:</tspan><tspan x="4" y="27.166666666666668">Brute</tspan><tspan x="4" y="41.83333333333333">Force</tspan></text></g><g class="technique T1555" transform="translate(0, 94.66666666666667)"><rect class="cell" height="47.333333333333336" width="95.0909090909091" fill="#ffffff" stroke="#6B7279"/><polygon class="sidebar" transform="translate(0, 47.333333333333336)" points="0,0 12,0 12,12" fill="#6B7279" visibility="hidden"/><text font-size="7.015656565656565" fill="#000000"><tspan x="4" y="8.791666666666668">T1555:</tspan><tspan x="4" y="20.375">Credentials</tspan><tspan x="4" y="31.958333333333336">from Password</tspan><tspan x="4" y="43.54166666666667">Stores</tspan></text></g><g class="technique T1606" transform="translate(0, 142)"><rect class="cell" height="47.333333333333336" width="95.0909090909091" fill="#ffffff" stroke="#6B7279"/><polygon class="sidebar" transform="translate(0, 47.333333333333336)" points="0,0 12,0 12,12" fill="#6B7279" visibility="hidden"/><text font-size="7.015656565656565" fill="#000000"><tspan x="4" y="12.5">T1606:</tspan><tspan x="4" y="27.166666666666668">Forge Web</tspan><tspan x="4" y="41.83333333333333">Credentials</tspan></text></g><g class="technique T1556" transform="translate(0, 189.33333333333334)"><rect class="cell" height="47.333333333333336" width="95.0909090909091" fill="#ffffff" stroke="#6B7279"/><polygon class="sidebar" transform="translate(0, 47.333333333333336)" points="0,0 12,0 12,12" fill="#6B7279" visibility="hidden"/><text font-size="7.015656565656565" fill="#000000"><tspan x="4" y="11.5">T1556: Modify</tspan><tspan x="4" y="26.166666666666668">Authentication</tspan><tspan x="4" y="40.83333333333333">Process</tspan></text></g><g class="technique T1621" transform="translate(0, 236.66666666666666)"><rect class="cell" height="47.333333333333336" width="95.0909090909091" fill="#ffffff" stroke="#6B7279"/><polygon class="sidebar" transform="translate(0, 47.333333333333336)" points="0,0 12,0 12,0" fill="#6B7279" visibility="hidden"/><text font-size="7.015656565656565" fill="#000000"><tspan x="4" y="8.791666666666668">T1621:</tspan><tspan x="4" y="20.375">Multi-Factor</tspan><tspan x="4" y="31.958333333333336">Authentication</tspan><tspan x="4" y="43.54166666666667">Request Generation</tspan></text></g><g class="technique T1040" transform="translate(0, 284)"><rect class="cell" height="47.333333333333336" width="95.0909090909091" fill="#ffffff" stroke="#6B7279"/><polygon class="sidebar" transform="translate(0, 47.333333333333336)" points="0,0 12,0 12,0" fill="#6B7279" visibility="hidden"/><text font-size="7.015656565656565" fill="#000000"><tspan x="4" y="12.5">T1040:</tspan><tspan x="4" y="27.166666666666668">Network</tspan><tspan x="4" y="41.83333333333333">Sniffing</tspan></text></g><g class="technique T1528" transform="translate(0, 331.3333333333333)"><rect class="cell" height="47.333333333333336" width="95.0909090909091" fill="#ffffff" stroke="#6B7279"/><polygon class="sidebar" transform="translate(0, 47.333333333333336)" points="0,0 12,0 12,0" fill="#6B7279" visibility="hidden"/><text font-size="7.015656565656565" fill="#000000"><tspan x="4" y="12.5">T1528: Steal</tspan><tspan x="4" y="27.166666666666668">Application</tspan><tspan x="4" y="41.83333333333333">Access Token</tspan></text></g><g class="technique T1539" transform="translate(0, 378.6666666666667)"><rect class="cell" height="47.333333333333336" width="95.0909090909091" fill="#ffffff" stroke="#6B7279"/><polygon class="sidebar" transform="translate(0, 47.333333333333336)" points="0,0 12,0 12,0" fill="#6B7279" visibility="hidden"/><text font-size="7.015656565656565" fill="#000000"><tspan x="4" y="12.5">T1539: Steal</tspan><tspan x="4" y="27.166666666666668">Web Session</tspan><tspan x="4" y="41.83333333333333">Cookie</tspan></text></g><g class="technique T1552" transform="translate(0, 426)"><rect class="cell" height="47.333333333333336" width="95.0909090909091" fill="#ffffff" stroke="#6B7279"/><polygon class="sidebar" transform="translate(0, 47.333333333333336)" points="0,0 12,0 12,12" fill="#6B7279" visibility="hidden"/><text font-size="7.015656565656565" fill="#000000"><tspan x="4" y="12.5">T1552:</tspan><tspan x="4" y="27.166666666666668">Unsecured</tspan><tspan x="4" y="41.83333333333333">Credentials</tspan></text></g></g><g class="subtechniques"/><g class="tactic-label"><text font-size="10.523484848484848" fill="black" font-weight="bold"><tspan text-anchor="middle" x="47.54545454545455" y="19.916666666666668">Credential</tspan><tspan text-anchor="middle" x="47.54545454545455" y="34.41666666666667">Access</tspan></text></g></g><g class="tactic discovery" transform="translate(570.5454545454545, 0)"><g class="techniques"><g class="technique T1087" transform="translate(0, 47.333333333333336)"><rect class="cell" height="47.333333333333336" width="95.0909090909091" fill="#ffffff" stroke="#6B7279"/><polygon class="sidebar" transform="translate(0, 47.333333333333336)" points="0,0 12,0 12,12" fill="#6B7279" visibility="hidden"/><text font-size="7.015656565656565" fill="#000000"><tspan x="4" y="12.5">T1087:</tspan><tspan x="4" y="27.166666666666668">Account</tspan><tspan x="4" y="41.83333333333333">Discovery</tspan></text></g><g class="technique T1580" transform="translate(0, 94.66666666666667)"><rect class="cell" height="47.333333333333336" width="95.0909090909091" fill="#ffffff" stroke="#6B7279"/><polygon class="sidebar" transform="translate(0, 47.333333333333336)" points="0,0 12,0 12,0" fill="#6B7279" visibility="hidden"/><text font-size="7.015656565656565" fill="#000000"><tspan x="4" y="11.5">T1580: Cloud</tspan><tspan x="4" y="26.166666666666668">Infrastructure</tspan><tspan x="4" y="40.83333333333333">Discovery</tspan></text></g><g class="technique T1538" transform="translate(0, 142)"><rect class="cell" height="47.333333333333336" width="95.0909090909091" fill="#ffffff" stroke="#6B7279"/><polygon class="sidebar" transform="translate(0, 47.333333333333336)" points="0,0 12,0 12,0" fill="#6B7279" visibility="hidden"/><text font-size="7.015656565656565" fill="#000000"><tspan x="4" y="12.5">T1538: Cloud</tspan><tspan x="4" y="27.166666666666668">Service</tspan><tspan x="4" y="41.83333333333333">Dashboard</tspan></text></g><g class="technique T1526" transform="translate(0, 189.33333333333334)"><rect class="cell" height="47.333333333333336" width="95.0909090909091" fill="#ffffff" stroke="#6B7279"/><polygon class="sidebar" transform="translate(0, 47.333333333333336)" points="0,0 12,0 12,0" fill="#6B7279" visibility="hidden"/><text font-size="7.015656565656565" fill="#000000"><tspan x="4" y="12.5">T1526: Cloud</tspan><tspan x="4" y="27.166666666666668">Service</tspan><tspan x="4" y="41.83333333333333">Discovery</tspan></text></g><g class="technique T1619" transform="translate(0, 236.66666666666666)"><rect class="cell" height="47.333333333333336" width="95.0909090909091" fill="#ffffff" stroke="#6B7279"/><polygon class="sidebar" transform="translate(0, 47.333333333333336)" points="0,0 12,0 12,0" fill="#6B7279" visibility="hidden"/><text font-size="7.015656565656565" fill="#000000"><tspan x="4" y="8.791666666666668">T1619:</tspan><tspan x="4" y="20.375">Cloud Storage</tspan><tspan x="4" y="31.958333333333336">Object</tspan><tspan x="4" y="43.54166666666667">Discovery</tspan></text></g><g class="technique T1654" transform="translate(0, 284)"><rect class="cell" height="47.333333333333336" width="95.0909090909091" fill="#ffffff" stroke="#6B7279"/><polygon class="sidebar" transform="translate(0, 47.333333333333336)" points="0,0 12,0 12,0" fill="#6B7279" visibility="hidden"/><text font-size="7.015656565656565" fill="#000000"><tspan x="4" y="19.916666666666668">T1654: Log</tspan><tspan x="4" y="34.41666666666667">Enumeration</tspan></text></g><g class="technique T1046" transform="translate(0, 331.3333333333333)"><rect class="cell" height="47.333333333333336" width="95.0909090909091" fill="#ffffff" stroke="#6B7279"/><polygon class="sidebar" transform="translate(0, 47.333333333333336)" points="0,0 12,0 12,0" fill="#6B7279" visibility="hidden"/><text font-size="7.015656565656565" fill="#000000"><tspan x="4" y="8.791666666666668">T1046:</tspan><tspan x="4" y="20.375">Network</tspan><tspan x="4" y="31.958333333333336">Service</tspan><tspan x="4" y="43.54166666666667">Discovery</tspan></text></g><g class="technique T1040" transform="translate(0, 378.6666666666667)"><rect class="cell" height="47.333333333333336" width="95.0909090909091" fill="#ffffff" stroke="#6B7279"/><polygon class="sidebar" transform="translate(0, 47.333333333333336)" points="0,0 12,0 12,0" fill="#6B7279" visibility="hidden"/><text font-size="7.015656565656565" fill="#000000"><tspan x="4" y="12.5">T1040:</tspan><tspan x="4" y="27.166666666666668">Network</tspan><tspan x="4" y="41.83333333333333">Sniffing</tspan></text></g><g class="technique T1201" transform="translate(0, 426)"><rect class="cell" height="47.333333333333336" width="95.0909090909091" fill="#ffffff" stroke="#6B7279"/><polygon class="sidebar" transform="translate(0, 47.333333333333336)" points="0,0 12,0 12,0" fill="#6B7279" visibility="hidden"/><text font-size="7.015656565656565" fill="#000000"><tspan x="4" y="8.791666666666668">T1201:</tspan><tspan x="4" y="20.375">Password</tspan><tspan x="4" y="31.958333333333336">Policy</tspan><tspan x="4" y="43.54166666666667">Discovery</tspan></text></g><g class="technique T1069" transform="translate(0, 473.3333333333333)"><rect class="cell" height="47.333333333333336" width="95.0909090909091" fill="#ffffff" stroke="#6B7279"/><polygon class="sidebar" transform="translate(0, 47.333333333333336)" points="0,0 12,0 12,12" fill="#6B7279" visibility="hidden"/><text font-size="7.015656565656565" fill="#000000"><tspan x="4" y="8.791666666666668">T1069:</tspan><tspan x="4" y="20.375">Permission</tspan><tspan x="4" y="31.958333333333336">Groups</tspan><tspan x="4" y="43.54166666666667">Discovery</tspan></text></g><g class="technique T1518" transform="translate(0, 520.6666666666666)"><rect class="cell" height="47.333333333333336" width="95.0909090909091" fill="#ffffff" stroke="#6B7279"/><polygon class="sidebar" transform="translate(0, 47.333333333333336)" points="0,0 12,0 12,12" fill="#6B7279" visibility="hidden"/><text font-size="7.015656565656565" fill="#000000"><tspan x="4" y="12.5">T1518:</tspan><tspan x="4" y="27.166666666666668">Software</tspan><tspan x="4" y="41.83333333333333">Discovery</tspan></text></g><g class="technique T1082" transform="translate(0, 568)"><rect class="cell" height="47.333333333333336" width="95.0909090909091" fill="#ffffff" stroke="#6B7279"/><polygon class="sidebar" transform="translate(0, 47.333333333333336)" points="0,0 12,0 12,0" fill="#6B7279" visibility="hidden"/><text font-size="7.015656565656565" fill="#000000"><tspan x="4" y="11.5">T1082: System</tspan><tspan x="4" y="26.166666666666668">Information</tspan><tspan x="4" y="40.83333333333333">Discovery</tspan></text></g><g class="technique T1614" transform="translate(0, 615.3333333333334)"><rect class="cell" height="47.333333333333336" width="95.0909090909091" fill="#ffffff" stroke="#6B7279"/><polygon class="sidebar" transform="translate(0, 47.333333333333336)" points="0,0 12,0 12,0" fill="#6B7279" visibility="hidden"/><text font-size="7.015656565656565" fill="#000000"><tspan x="4" y="11.5">T1614: System</tspan><tspan x="4" y="26.166666666666668">Location</tspan><tspan x="4" y="40.83333333333333">Discovery</tspan></text></g><g class="technique T1049" transform="translate(0, 662.6666666666666)"><rect class="cell" height="47.333333333333336" width="95.0909090909091" fill="#ffffff" stroke="#6B7279"/><polygon class="sidebar" transform="translate(0, 47.333333333333336)" points="0,0 12,0 12,0" fill="#6B7279" visibility="hidden"/><text font-size="7.015656565656565" fill="#000000"><tspan x="4" y="8.791666666666668">T1049: System</tspan><tspan x="4" y="20.375">Network</tspan><tspan x="4" y="31.958333333333336">Connections</tspan><tspan x="4" y="43.54166666666667">Discovery</tspan></text></g></g><g class="subtechniques"/><g class="tactic-label"><text font-size="10.523484848484848" fill="black" font-weight="bold"><tspan text-anchor="middle" x="47.54545454545455" y="27.166666666666668">Discovery</tspan></text></g></g><g class="tactic lateral-movement" transform="translate(665.6363636363636, 0)"><g class="techniques"><g class="technique T1534" transform="translate(0, 47.333333333333336)"><rect class="cell" height="47.333333333333336" width="95.0909090909091" fill="#ffffff" stroke="#6B7279"/><polygon class="sidebar" transform="translate(0, 47.333333333333336)" points="0,0 12,0 12,0" fill="#6B7279" visibility="hidden"/><text font-size="7.015656565656565" fill="#000000"><tspan x="4" y="11.5">T1534:</tspan><tspan x="4" y="26.166666666666668">Internal</tspan><tspan x="4" y="40.83333333333333">Spearphishing</tspan></text></g><g class="technique T1021" transform="translate(0, 94.66666666666667)"><rect class="cell" height="47.333333333333336" width="95.0909090909091" fill="#ffffff" stroke="#6B7279"/><polygon class="sidebar" transform="translate(0, 47.333333333333336)" points="0,0 12,0 12,12" fill="#6B7279" visibility="hidden"/><text font-size="7.015656565656565" fill="#000000"><tspan x="4" y="12.5">T1021:</tspan><tspan x="4" y="27.166666666666668">Remote</tspan><tspan x="4" y="41.83333333333333">Services</tspan></text></g><g class="technique T1072" transform="translate(0, 142)"><rect class="cell" height="47.333333333333336" width="95.0909090909091" fill="#ffffff" stroke="#6B7279"/><polygon class="sidebar" transform="translate(0, 47.333333333333336)" points="0,0 12,0 12,0" fill="#6B7279" visibility="hidden"/><text font-size="7.015656565656565" fill="#000000"><tspan x="4" y="8.791666666666668">T1072:</tspan><tspan x="4" y="20.375">Software</tspan><tspan x="4" y="31.958333333333336">Deployment</tspan><tspan x="4" y="43.54166666666667">Tools</tspan></text></g><g class="technique T1080" transform="translate(0, 189.33333333333334)"><rect class="cell" height="47.333333333333336" width="95.0909090909091" fill="#ffffff" stroke="#6B7279"/><polygon class="sidebar" transform="translate(0, 47.333333333333336)" points="0,0 12,0 12,0" fill="#6B7279" visibility="hidden"/><text font-size="7.015656565656565" fill="#000000"><tspan x="4" y="12.5">T1080:</tspan><tspan x="4" y="27.166666666666668">Taint Shared</tspan><tspan x="4" y="41.83333333333333">Content</tspan></text></g><g class="technique T1550" transform="translate(0, 236.66666666666666)"><rect class="cell" height="47.333333333333336" width="95.0909090909091" fill="#ffffff" stroke="#6B7279"/><polygon class="sidebar" transform="translate(0, 47.333333333333336)" points="0,0 12,0 12,12" fill="#6B7279" visibility="hidden"/><text font-size="7.015656565656565" fill="#000000"><tspan x="4" y="8.791666666666668">T1550:</tspan><tspan x="4" y="20.375">Use Alternate</tspan><tspan x="4" y="31.958333333333336">Authentication</tspan><tspan x="4" y="43.54166666666667">Material</tspan></text></g></g><g class="subtechniques"/><g class="tactic-label"><text font-size="10.523484848484848" fill="black" font-weight="bold"><tspan text-anchor="middle" x="47.54545454545455" y="19.916666666666668">Lateral</tspan><tspan text-anchor="middle" x="47.54545454545455" y="34.41666666666667">Movement</tspan></text></g></g><g class="tactic collection" transform="translate(760.7272727272727, 0)"><g class="techniques"><g class="technique T1119" transform="translate(0, 47.333333333333336)"><rect class="cell" height="47.333333333333336" width="95.0909090909091" fill="#ffffff" stroke="#6B7279"/><polygon class="sidebar" transform="translate(0, 47.333333333333336)" points="0,0 12,0 12,0" fill="#6B7279" visibility="hidden"/><text font-size="7.015656565656565" fill="#000000"><tspan x="4" y="12.5">T1119:</tspan><tspan x="4" y="27.166666666666668">Automated</tspan><tspan x="4" y="41.83333333333333">Collection</tspan></text></g><g class="technique T1530" transform="translate(0, 94.66666666666667)"><rect class="cell" height="47.333333333333336" width="95.0909090909091" fill="#ffffff" stroke="#6B7279"/><polygon class="sidebar" transform="translate(0, 47.333333333333336)" points="0,0 12,0 12,0" fill="#6B7279" visibility="hidden"/><text font-size="7.015656565656565" fill="#000000"><tspan x="4" y="12.5">T1530: Data</tspan><tspan x="4" y="27.166666666666668">from Cloud</tspan><tspan x="4" y="41.83333333333333">Storage</tspan></text></g><g class="technique T1213" transform="translate(0, 142)"><rect class="cell" height="47.333333333333336" width="95.0909090909091" fill="#ffffff" stroke="#6B7279"/><polygon class="sidebar" transform="translate(0, 47.333333333333336)" points="0,0 12,0 12,12" fill="#6B7279" visibility="hidden"/><text font-size="7.015656565656565" fill="#000000"><tspan x="4" y="8.791666666666668">T1213:</tspan><tspan x="4" y="20.375">Data from</tspan><tspan x="4" y="31.958333333333336">Information</tspan><tspan x="4" y="43.54166666666667">Repositories</tspan></text></g><g class="technique T1074" transform="translate(0, 189.33333333333334)"><rect class="cell" height="47.333333333333336" width="95.0909090909091" fill="#ffffff" stroke="#6B7279"/><polygon class="sidebar" transform="translate(0, 47.333333333333336)" points="0,0 12,0 12,12" fill="#6B7279" visibility="hidden"/><text font-size="7.015656565656565" fill="#000000"><tspan x="4" y="12.5">T1074:</tspan><tspan x="4" y="27.166666666666668">Data</tspan><tspan x="4" y="41.83333333333333">Staged</tspan></text></g></g><g class="subtechniques"/><g class="tactic-label"><text font-size="10.523484848484848" fill="black" font-weight="bold"><tspan text-anchor="middle" x="47.54545454545455" y="27.166666666666668">Collection</tspan></text></g></g><g class="tactic exfiltration" transform="translate(855.8181818181819, 0)"><g class="techniques"><g class="technique T1048" transform="translate(0, 47.333333333333336)"><rect class="cell" height="47.333333333333336" width="95.0909090909091" fill="#ffffff" stroke="#6B7279"/><polygon class="sidebar" transform="translate(0, 47.333333333333336)" points="0,0 12,0 12,0" fill="#6B7279" visibility="hidden"/><text font-size="7.015656565656565" fill="#000000"><tspan x="4" y="8.791666666666668">T1048:</tspan><tspan x="4" y="20.375">Exfiltration</tspan><tspan x="4" y="31.958333333333336">Over Alternative</tspan><tspan x="4" y="43.54166666666667">Protocol</tspan></text></g><g class="technique T1567" transform="translate(0, 94.66666666666667)"><rect class="cell" height="47.333333333333336" width="95.0909090909091" fill="#ffffff" stroke="#6B7279"/><polygon class="sidebar" transform="translate(0, 47.333333333333336)" points="0,0 12,0 12,12" fill="#6B7279" visibility="hidden"/><text font-size="7.015656565656565" fill="#000000"><tspan x="4" y="8.791666666666668">T1567:</tspan><tspan x="4" y="20.375">Exfiltration</tspan><tspan x="4" y="31.958333333333336">Over</tspan><tspan x="4" y="43.54166666666667">Web Service</tspan></text></g><g class="technique T1537" transform="translate(0, 142)"><rect class="cell" height="47.333333333333336" width="95.0909090909091" fill="#ffffff" stroke="#6B7279"/><polygon class="sidebar" transform="translate(0, 47.333333333333336)" points="0,0 12,0 12,0" fill="#6B7279" visibility="hidden"/><text font-size="7.015656565656565" fill="#000000"><tspan x="4" y="8.791666666666668">T1537:</tspan><tspan x="4" y="20.375">Transfer</tspan><tspan x="4" y="31.958333333333336">Data to</tspan><tspan x="4" y="43.54166666666667">Cloud Account</tspan></text></g></g><g class="subtechniques"/><g class="tactic-label"><text font-size="10.523484848484848" fill="black" font-weight="bold"><tspan text-anchor="middle" x="47.54545454545455" y="27.166666666666668">Exfiltration</tspan></text></g></g><g class="tactic impact" transform="translate(950.909090909091, 0)"><g class="techniques"><g class="technique T1531" transform="translate(0, 47.333333333333336)"><rect class="cell" height="47.333333333333336" width="95.0909090909091" fill="#ffffff" stroke="#6B7279"/><polygon class="sidebar" transform="translate(0, 47.333333333333336)" points="0,0 12,0 12,0" fill="#6B7279" visibility="hidden"/><text font-size="7.015656565656565" fill="#000000"><tspan x="4" y="8.791666666666668">T1531:</tspan><tspan x="4" y="20.375">Account</tspan><tspan x="4" y="31.958333333333336">Access</tspan><tspan x="4" y="43.54166666666667">Removal</tspan></text></g><g class="technique T1485" transform="translate(0, 94.66666666666667)"><rect class="cell" height="47.333333333333336" width="95.0909090909091" fill="#ffffff" stroke="#6B7279"/><polygon class="sidebar" transform="translate(0, 47.333333333333336)" points="0,0 12,0 12,12" fill="#6B7279" visibility="hidden"/><text font-size="7.015656565656565" fill="#000000"><tspan x="4" y="19.916666666666668">T1485: Data</tspan><tspan x="4" y="34.41666666666667">Destruction</tspan></text></g><g class="technique T1486" transform="translate(0, 142)"><rect class="cell" height="47.333333333333336" width="95.0909090909091" fill="#ffffff" stroke="#6B7279"/><polygon class="sidebar" transform="translate(0, 47.333333333333336)" points="0,0 12,0 12,0" fill="#6B7279" visibility="hidden"/><text font-size="7.015656565656565" fill="#000000"><tspan x="4" y="12.5">T1486: Data</tspan><tspan x="4" y="27.166666666666668">Encrypted</tspan><tspan x="4" y="41.83333333333333">for Impact</tspan></text></g><g class="technique T1491" transform="translate(0, 189.33333333333334)"><rect class="cell" height="47.333333333333336" width="95.0909090909091" fill="#ffffff" stroke="#6B7279"/><polygon class="sidebar" transform="translate(0, 47.333333333333336)" points="0,0 12,0 12,12" fill="#6B7279" visibility="hidden"/><text font-size="7.015656565656565" fill="#000000"><tspan x="4" y="19.916666666666668">T1491:</tspan><tspan x="4" y="34.41666666666667">Defacement</tspan></text></g><g class="technique T1499" transform="translate(0, 236.66666666666666)"><rect class="cell" height="47.333333333333336" width="95.0909090909091" fill="#ffffff" stroke="#6B7279"/><polygon class="sidebar" transform="translate(0, 47.333333333333336)" points="0,0 12,0 12,12" fill="#6B7279" visibility="hidden"/><text font-size="7.015656565656565" fill="#000000"><tspan x="4" y="8.791666666666668">T1499:</tspan><tspan x="4" y="20.375">Endpoint</tspan><tspan x="4" y="31.958333333333336">Denial</tspan><tspan x="4" y="43.54166666666667">of Service</tspan></text></g><g class="technique T1657" transform="translate(0, 284)"><rect class="cell" height="47.333333333333336" width="95.0909090909091" fill="#ffffff" stroke="#6B7279"/><polygon class="sidebar" transform="translate(0, 47.333333333333336)" points="0,0 12,0 12,0" fill="#6B7279" visibility="hidden"/><text font-size="7.015656565656565" fill="#000000"><tspan x="4" y="12.5">T1657:</tspan><tspan x="4" y="27.166666666666668">Financial</tspan><tspan x="4" y="41.83333333333333">Theft</tspan></text></g><g class="technique T1490" transform="translate(0, 331.3333333333333)"><rect class="cell" height="47.333333333333336" width="95.0909090909091" fill="#ffffff" stroke="#6B7279"/><polygon class="sidebar" transform="translate(0, 47.333333333333336)" points="0,0 12,0 12,0" fill="#6B7279" visibility="hidden"/><text font-size="7.015656565656565" fill="#000000"><tspan x="4" y="8.791666666666668">T1490:</tspan><tspan x="4" y="20.375">Inhibit</tspan><tspan x="4" y="31.958333333333336">System</tspan><tspan x="4" y="43.54166666666667">Recovery</tspan></text></g><g class="technique T1498" transform="translate(0, 378.6666666666667)"><rect class="cell" height="47.333333333333336" width="95.0909090909091" fill="#ffffff" stroke="#6B7279"/><polygon class="sidebar" transform="translate(0, 47.333333333333336)" points="0,0 12,0 12,12" fill="#6B7279" visibility="hidden"/><text font-size="7.015656565656565" fill="#000000"><tspan x="4" y="8.791666666666668">T1498:</tspan><tspan x="4" y="20.375">Network</tspan><tspan x="4" y="31.958333333333336">Denial</tspan><tspan x="4" y="43.54166666666667">of Service</tspan></text></g><g class="technique T1496" transform="translate(0, 426)"><rect class="cell" height="47.333333333333336" width="95.0909090909091" fill="#ffffff" stroke="#6B7279"/><polygon class="sidebar" transform="translate(0, 47.333333333333336)" points="0,0 12,0 12,12" fill="#6B7279" visibility="hidden"/><text font-size="7.015656565656565" fill="#000000"><tspan x="4" y="12.5">T1496:</tspan><tspan x="4" y="27.166666666666668">Resource</tspan><tspan x="4" y="41.83333333333333">Hijacking</tspan></text></g></g><g class="subtechniques"/><g class="tactic-label"><text font-size="10.523484848484848" fill="black" font-weight="bold"><tspan text-anchor="middle" x="47.54545454545455" y="27.166666666666668">Impact</tspan></text></g></g></g></g></g></svg>