<?xml version="1.0" standalone="no"?>
<svg width="1056" height="816" xmlns="http://www.w3.org/2000/svg" id="svgvm7"><g transform="translate(5,5)" style="font-family: sans-serif;"><g transform="translate(0,1)"><g><g class="tactic initial-access" transform="translate(0, 0)"><g class="techniques"><g class="technique T1189" transform="translate(0, 44.77777777777778)"><rect class="cell" height="44.77777777777778" width="105.7752808988764" fill="white" stroke="#6B7279"/><polygon class="sidebar" transform="translate(0, 44.77777777777778)" points="0,0 12,0 12,0" fill="#6B7279" visibility="hidden"/><text font-size="7.8763420724094875" fill="black"><tspan x="4" y="11.296296296296298">T1189:</tspan><tspan x="4" y="25.88888888888889">Drive-by</tspan><tspan x="4" y="40.48148148148148">Compromise</tspan></text></g><g class="technique T1566" transform="translate(0, 89.55555555555556)"><rect class="cell" height="44.77777777777778" width="105.7752808988764" fill="white" stroke="#6B7279"/><polygon class="sidebar" transform="translate(0, 44.77777777777778)" points="0,0 12,0 12,12" fill="#6B7279" visibility="visible"/><text font-size="7.8763420724094875" fill="black"><tspan x="4" y="18.63888888888889">T1566:</tspan><tspan x="4" y="33.138888888888886">Phishing</tspan></text></g><g class="technique T1199" transform="translate(0, 179.11111111111111)"><rect class="cell" height="44.77777777777778" width="105.7752808988764" fill="#9666ffff" stroke="#6B7279"/><polygon class="sidebar" transform="translate(0, 44.77777777777778)" points="0,0 12,0 12,0" fill="#6B7279" visibility="hidden"/><text font-size="7.8763420724094875" fill="black"><tspan x="4" y="11.296296296296298">T1199:</tspan><tspan x="4" y="25.88888888888889">Trusted</tspan><tspan x="4" y="40.48148148148148">Relationship</tspan></text></g><g class="technique T1078" transform="translate(0, 223.88888888888889)"><rect class="cell" height="44.77777777777778" width="105.7752808988764" fill="#756bb1" stroke="#6B7279"/><polygon class="sidebar" transform="translate(0, 44.77777777777778)" points="0,0 12,0 12,12" fill="#6B7279" visibility="visible"/><text font-size="7.8763420724094875" fill="white"><tspan x="4" y="11.296296296296298">T1078:</tspan><tspan x="4" y="25.88888888888889">Valid</tspan><tspan x="4" y="40.48148148148148">Accounts</tspan></text></g></g><g class="subtechniques"><g class="subtechnique T1566.002" transform="translate(15, 134.33333333333331)"><rect class="cell" height="44.77777777777778" width="90.7752808988764" fill="white" stroke="#6B7279"/><rect class="cell" height="44.77777777777778" width="3" transform="translate(-3, 0)" fill="#6B7279" stroke="#6B7279"/><text font-size="7.8763420724094875" fill="black"><tspan x="4" y="10.296296296296298">T1566.002:</tspan><tspan x="4" y="24.88888888888889">Spearphishing</tspan><tspan x="4" y="39.48148148148148">Link</tspan></text></g><g class="subtechnique T1078.004" transform="translate(15, 268.66666666666663)"><rect class="cell" height="44.77777777777778" width="90.7752808988764" fill="#9666ffff" stroke="#6B7279"/><rect class="cell" height="44.77777777777778" width="3" transform="translate(-3, 0)" fill="#6B7279" stroke="#6B7279"/><text font-size="7.8763420724094875" fill="black"><tspan x="4" y="11.296296296296298">T1078.004:</tspan><tspan x="4" y="25.88888888888889">Cloud</tspan><tspan x="4" y="40.48148148148148">Accounts</tspan></text></g><g class="subtechnique T1078.001" transform="translate(15, 313.44444444444446)"><rect class="cell" height="44.77777777777778" width="90.7752808988764" fill="white" stroke="#6B7279"/><rect class="cell" height="44.77777777777778" width="3" transform="translate(-3, 0)" fill="#6B7279" stroke="#6B7279"/><text font-size="7.8763420724094875" fill="black"><tspan x="4" y="11.296296296296298">T1078.001:</tspan><tspan x="4" y="25.88888888888889">Default</tspan><tspan x="4" y="40.48148148148148">Accounts</tspan></text></g></g><g class="tactic-label"><text font-size="12" fill="black" font-weight="bold"><tspan text-anchor="middle" x="52.8876404494382" y="18.63888888888889">Initial</tspan><tspan text-anchor="middle" x="52.8876404494382" y="33.138888888888886">Access</tspan></text></g></g><g class="tactic persistence" transform="translate(117.52808988764045, 0)"><g class="techniques"><g class="technique T1098" transform="translate(0, 44.77777777777778)"><rect class="cell" height="44.77777777777778" width="105.7752808988764" fill="#9666ffff" stroke="#6B7279"/><polygon class="sidebar" transform="translate(0, 44.77777777777778)" points="0,0 12,0 12,12" fill="#6B7279" visibility="visible"/><text font-size="7.8763420724094875" fill="black"><tspan x="4" y="11.296296296296298">T1098:</tspan><tspan x="4" y="25.88888888888889">Account</tspan><tspan x="4" y="40.48148148148148">Manipulation</tspan></text></g><g class="technique T1136" transform="translate(0, 268.66666666666663)"><rect class="cell" height="44.77777777777778" width="105.7752808988764" fill="white" stroke="#6B7279"/><polygon class="sidebar" transform="translate(0, 44.77777777777778)" points="0,0 12,0 12,12" fill="#6B7279" visibility="visible"/><text font-size="7.8763420724094875" fill="black"><tspan x="4" y="11.296296296296298">T1136:</tspan><tspan x="4" y="25.88888888888889">Create</tspan><tspan x="4" y="40.48148148148148">Account</tspan></text></g><g class="technique T1137" transform="translate(0, 358.22222222222223)"><rect class="cell" height="44.77777777777778" width="105.7752808988764" fill="white" stroke="#6B7279"/><polygon class="sidebar" transform="translate(0, 44.77777777777778)" points="0,0 12,0 12,12" fill="#6B7279" visibility="visible"/><text font-size="7.8763420724094875" fill="black"><tspan x="4" y="11.296296296296298">T1137: Office</tspan><tspan x="4" y="25.88888888888889">Application</tspan><tspan x="4" y="40.48148148148148">Startup</tspan></text></g><g class="technique T1078" transform="translate(0, 671.6666666666667)"><rect class="cell" height="44.77777777777778" width="105.7752808988764" fill="#756bb1" stroke="#6B7279"/><polygon class="sidebar" transform="translate(0, 44.77777777777778)" points="0,0 12,0 12,12" fill="#6B7279" visibility="visible"/><text font-size="7.8763420724094875" fill="white"><tspan x="4" y="11.296296296296298">T1078:</tspan><tspan x="4" y="25.88888888888889">Valid</tspan><tspan x="4" y="40.48148148148148">Accounts</tspan></text></g></g><g class="subtechniques"><g class="subtechnique T1098.001" transform="translate(15, 89.55555555555556)"><rect class="cell" height="44.77777777777778" width="90.7752808988764" fill="white" stroke="#6B7279"/><rect class="cell" height="44.77777777777778" width="3" transform="translate(-3, 0)" fill="#6B7279" stroke="#6B7279"/><text font-size="7.8763420724094875" fill="black"><tspan x="4" y="8.472222222222221">T1098.001:</tspan><tspan x="4" y="19.416666666666668">Additional</tspan><tspan x="4" y="30.36111111111111">Cloud</tspan><tspan x="4" y="41.30555555555556">Credentials</tspan></text></g><g class="subtechnique T1098.003" transform="translate(15, 134.33333333333331)"><rect class="cell" height="44.77777777777778" width="90.7752808988764" fill="#9666ffff" stroke="#6B7279"/><rect class="cell" height="44.77777777777778" width="3" transform="translate(-3, 0)" fill="#6B7279" stroke="#6B7279"/><text font-size="7.8763420724094875" fill="black"><tspan x="4" y="11.296296296296298">T1098.003:</tspan><tspan x="4" y="25.88888888888889">Additional</tspan><tspan x="4" y="40.48148148148148">Cloud Roles</tspan></text></g><g class="subtechnique T1098.002" transform="translate(15, 179.11111111111111)"><rect class="cell" height="44.77777777777778" width="90.7752808988764" fill="white" stroke="#6B7279"/><rect class="cell" height="44.77777777777778" width="3" transform="translate(-3, 0)" fill="#6B7279" stroke="#6B7279"/><text font-size="7.8763420724094875" fill="black"><tspan x="4" y="8.472222222222221">T1098.002:</tspan><tspan x="4" y="19.416666666666668">Additional</tspan><tspan x="4" y="30.36111111111111">Email Delegate</tspan><tspan x="4" y="41.30555555555556">Permissions</tspan></text></g><g class="subtechnique T1098.005" transform="translate(15, 223.88888888888889)"><rect class="cell" height="44.77777777777778" width="90.7752808988764" fill="white" stroke="#6B7279"/><rect class="cell" height="44.77777777777778" width="3" transform="translate(-3, 0)" fill="#6B7279" stroke="#6B7279"/><text font-size="7.8763420724094875" fill="black"><tspan x="4" y="11.296296296296298">T1098.005:</tspan><tspan x="4" y="25.88888888888889">Device</tspan><tspan x="4" y="40.48148148148148">Registration</tspan></text></g><g class="subtechnique T1136.003" transform="translate(15, 313.44444444444446)"><rect class="cell" height="44.77777777777778" width="90.7752808988764" fill="#9666ffff" stroke="#6B7279"/><rect class="cell" height="44.77777777777778" width="3" transform="translate(-3, 0)" fill="#6B7279" stroke="#6B7279"/><text font-size="7.8763420724094875" fill="black"><tspan x="4" y="11.296296296296298">T1136.003:</tspan><tspan x="4" y="25.88888888888889">Cloud</tspan><tspan x="4" y="40.48148148148148">Account</tspan></text></g><g class="subtechnique T1137.006" transform="translate(15, 403)"><rect class="cell" height="44.77777777777778" width="90.7752808988764" fill="white" stroke="#6B7279"/><rect class="cell" height="44.77777777777778" width="3" transform="translate(-3, 0)" fill="#6B7279" stroke="#6B7279"/><text font-size="7.8763420724094875" fill="black"><tspan x="4" y="18.63888888888889">T1137.006:</tspan><tspan x="4" y="33.138888888888886">Add-ins</tspan></text></g><g class="subtechnique T1137.001" transform="translate(15, 447.77777777777777)"><rect class="cell" height="44.77777777777778" width="90.7752808988764" fill="white" stroke="#6B7279"/><rect class="cell" height="44.77777777777778" width="3" transform="translate(-3, 0)" fill="#6B7279" stroke="#6B7279"/><text font-size="7.8763420724094875" fill="black"><tspan x="4" y="8.472222222222221">T1137.001:</tspan><tspan x="4" y="19.416666666666668">Office</tspan><tspan x="4" y="30.36111111111111">Template</tspan><tspan x="4" y="41.30555555555556">Macros</tspan></text></g><g class="subtechnique T1137.002" transform="translate(15, 492.5555555555556)"><rect class="cell" height="44.77777777777778" width="90.7752808988764" fill="white" stroke="#6B7279"/><rect class="cell" height="44.77777777777778" width="3" transform="translate(-3, 0)" fill="#6B7279" stroke="#6B7279"/><text font-size="7.8763420724094875" fill="black"><tspan x="4" y="11.296296296296298">T1137.002:</tspan><tspan x="4" y="25.88888888888889">Office</tspan><tspan x="4" y="40.48148148148148">Test</tspan></text></g><g class="subtechnique T1137.003" transform="translate(15, 537.3333333333333)"><rect class="cell" height="44.77777777777778" width="90.7752808988764" fill="white" stroke="#6B7279"/><rect class="cell" height="44.77777777777778" width="3" transform="translate(-3, 0)" fill="#6B7279" stroke="#6B7279"/><text font-size="7.8763420724094875" fill="black"><tspan x="4" y="11.296296296296298">T1137.003:</tspan><tspan x="4" y="25.88888888888889">Outlook</tspan><tspan x="4" y="40.48148148148148">Forms</tspan></text></g><g class="subtechnique T1137.004" transform="translate(15, 582.1111111111111)"><rect class="cell" height="44.77777777777778" width="90.7752808988764" fill="white" stroke="#6B7279"/><rect class="cell" height="44.77777777777778" width="3" transform="translate(-3, 0)" fill="#6B7279" stroke="#6B7279"/><text font-size="7.8763420724094875" fill="black"><tspan x="4" y="11.296296296296298">T1137.004:</tspan><tspan x="4" y="25.88888888888889">Outlook</tspan><tspan x="4" y="40.48148148148148">Home Page</tspan></text></g><g class="subtechnique T1137.005" transform="translate(15, 626.8888888888889)"><rect class="cell" height="44.77777777777778" width="90.7752808988764" fill="white" stroke="#6B7279"/><rect class="cell" height="44.77777777777778" width="3" transform="translate(-3, 0)" fill="#6B7279" stroke="#6B7279"/><text font-size="7.8763420724094875" fill="black"><tspan x="4" y="11.296296296296298">T1137.005:</tspan><tspan x="4" y="25.88888888888889">Outlook</tspan><tspan x="4" y="40.48148148148148">Rules</tspan></text></g><g class="subtechnique T1078.004" transform="translate(15, 716.4444444444445)"><rect class="cell" height="44.77777777777778" width="90.7752808988764" fill="#9666ffff" stroke="#6B7279"/><rect class="cell" height="44.77777777777778" width="3" transform="translate(-3, 0)" fill="#6B7279" stroke="#6B7279"/><text font-size="7.8763420724094875" fill="black"><tspan x="4" y="11.296296296296298">T1078.004:</tspan><tspan x="4" y="25.88888888888889">Cloud</tspan><tspan x="4" y="40.48148148148148">Accounts</tspan></text></g><g class="subtechnique T1078.001" transform="translate(15, 761.2222222222222)"><rect class="cell" height="44.77777777777778" width="90.7752808988764" fill="white" stroke="#6B7279"/><rect class="cell" height="44.77777777777778" width="3" transform="translate(-3, 0)" fill="#6B7279" stroke="#6B7279"/><text font-size="7.8763420724094875" fill="black"><tspan x="4" y="11.296296296296298">T1078.001:</tspan><tspan x="4" y="25.88888888888889">Default</tspan><tspan x="4" y="40.48148148148148">Accounts</tspan></text></g></g><g class="tactic-label"><text font-size="12" fill="black" font-weight="bold"><tspan text-anchor="middle" x="52.8876404494382" y="25.88888888888889">Persistence</tspan></text></g></g><g class="tactic privilege-escalation" transform="translate(235.0561797752809, 0)"><g class="techniques"><g class="technique T1484" transform="translate(0, 44.77777777777778)"><rect class="cell" height="44.77777777777778" width="105.7752808988764" fill="white" stroke="#6B7279"/><polygon class="sidebar" transform="translate(0, 44.77777777777778)" points="0,0 12,0 12,12" fill="#6B7279" visibility="visible"/><text font-size="7.8763420724094875" fill="black"><tspan x="4" y="11.296296296296298">T1484:</tspan><tspan x="4" y="25.88888888888889">Domain Policy</tspan><tspan x="4" y="40.48148148148148">Modification</tspan></text></g><g class="technique T1078" transform="translate(0, 134.33333333333331)"><rect class="cell" height="44.77777777777778" width="105.7752808988764" fill="#756bb1" stroke="#6B7279"/><polygon class="sidebar" transform="translate(0, 44.77777777777778)" points="0,0 12,0 12,12" fill="#6B7279" visibility="visible"/><text font-size="7.8763420724094875" fill="white"><tspan x="4" y="11.296296296296298">T1078:</tspan><tspan x="4" y="25.88888888888889">Valid</tspan><tspan x="4" y="40.48148148148148">Accounts</tspan></text></g></g><g class="subtechniques"><g class="subtechnique T1484.002" transform="translate(15, 89.55555555555556)"><rect class="cell" height="44.77777777777778" width="90.7752808988764" fill="white" stroke="#6B7279"/><rect class="cell" height="44.77777777777778" width="3" transform="translate(-3, 0)" fill="#6B7279" stroke="#6B7279"/><text font-size="7.8763420724094875" fill="black"><tspan x="4" y="11.296296296296298">T1484.002:</tspan><tspan x="4" y="25.88888888888889">Domain Trust</tspan><tspan x="4" y="40.48148148148148">Modification</tspan></text></g><g class="subtechnique T1078.004" transform="translate(15, 179.11111111111111)"><rect class="cell" height="44.77777777777778" width="90.7752808988764" fill="#9666ffff" stroke="#6B7279"/><rect class="cell" height="44.77777777777778" width="3" transform="translate(-3, 0)" fill="#6B7279" stroke="#6B7279"/><text font-size="7.8763420724094875" fill="black"><tspan x="4" y="11.296296296296298">T1078.004:</tspan><tspan x="4" y="25.88888888888889">Cloud</tspan><tspan x="4" y="40.48148148148148">Accounts</tspan></text></g><g class="subtechnique T1078.001" transform="translate(15, 223.88888888888889)"><rect class="cell" height="44.77777777777778" width="90.7752808988764" fill="white" stroke="#6B7279"/><rect class="cell" height="44.77777777777778" width="3" transform="translate(-3, 0)" fill="#6B7279" stroke="#6B7279"/><text font-size="7.8763420724094875" fill="black"><tspan x="4" y="11.296296296296298">T1078.001:</tspan><tspan x="4" y="25.88888888888889">Default</tspan><tspan x="4" y="40.48148148148148">Accounts</tspan></text></g></g><g class="tactic-label"><text font-size="12" fill="black" font-weight="bold"><tspan text-anchor="middle" x="52.8876404494382" y="18.63888888888889">Privilege</tspan><tspan text-anchor="middle" x="52.8876404494382" y="33.138888888888886">Escalation</tspan></text></g></g><g class="tactic defense-evasion" transform="translate(352.5842696629213, 0)"><g class="techniques"><g class="technique T1484" transform="translate(0, 44.77777777777778)"><rect class="cell" height="44.77777777777778" width="105.7752808988764" fill="white" stroke="#6B7279"/><polygon class="sidebar" transform="translate(0, 44.77777777777778)" points="0,0 12,0 12,12" fill="#6B7279" visibility="visible"/><text font-size="7.8763420724094875" fill="black"><tspan x="4" y="11.296296296296298">T1484:</tspan><tspan x="4" y="25.88888888888889">Domain Policy</tspan><tspan x="4" y="40.48148148148148">Modification</tspan></text></g><g class="technique T1564" transform="translate(0, 134.33333333333331)"><rect class="cell" height="44.77777777777778" width="105.7752808988764" fill="white" stroke="#6B7279"/><polygon class="sidebar" transform="translate(0, 44.77777777777778)" points="0,0 12,0 12,12" fill="#6B7279" visibility="visible"/><text font-size="7.8763420724094875" fill="black"><tspan x="4" y="18.63888888888889">T1564: Hide</tspan><tspan x="4" y="33.138888888888886">Artifacts</tspan></text></g><g class="technique T1562" transform="translate(0, 223.88888888888889)"><rect class="cell" height="44.77777777777778" width="105.7752808988764" fill="white" stroke="#6B7279"/><polygon class="sidebar" transform="translate(0, 44.77777777777778)" points="0,0 12,0 12,0" fill="#6B7279" visibility="visible"/><text font-size="7.8763420724094875" fill="black"><tspan x="4" y="11.296296296296298">T1562:</tspan><tspan x="4" y="25.88888888888889">Impair</tspan><tspan x="4" y="40.48148148148148">Defenses</tspan></text></g><g class="technique T1550" transform="translate(0, 268.66666666666663)"><rect class="cell" height="44.77777777777778" width="105.7752808988764" fill="#9666ffff" stroke="#6B7279"/><polygon class="sidebar" transform="translate(0, 44.77777777777778)" points="0,0 12,0 12,12" fill="#6B7279" visibility="visible"/><text font-size="7.8763420724094875" fill="black"><tspan x="4" y="8.472222222222221">T1550:</tspan><tspan x="4" y="19.416666666666668">Use Alternate</tspan><tspan x="4" y="30.36111111111111">Authentication</tspan><tspan x="4" y="41.30555555555556">Material</tspan></text></g><g class="technique T1078" transform="translate(0, 403)"><rect class="cell" height="44.77777777777778" width="105.7752808988764" fill="#756bb1" stroke="#6B7279"/><polygon class="sidebar" transform="translate(0, 44.77777777777778)" points="0,0 12,0 12,12" fill="#6B7279" visibility="visible"/><text font-size="7.8763420724094875" fill="white"><tspan x="4" y="11.296296296296298">T1078:</tspan><tspan x="4" y="25.88888888888889">Valid</tspan><tspan x="4" y="40.48148148148148">Accounts</tspan></text></g></g><g class="subtechniques"><g class="subtechnique T1484.002" transform="translate(15, 89.55555555555556)"><rect class="cell" height="44.77777777777778" width="90.7752808988764" fill="white" stroke="#6B7279"/><rect class="cell" height="44.77777777777778" width="3" transform="translate(-3, 0)" fill="#6B7279" stroke="#6B7279"/><text font-size="7.8763420724094875" fill="black"><tspan x="4" y="11.296296296296298">T1484.002:</tspan><tspan x="4" y="25.88888888888889">Domain Trust</tspan><tspan x="4" y="40.48148148148148">Modification</tspan></text></g><g class="subtechnique T1564.008" transform="translate(15, 179.11111111111111)"><rect class="cell" height="44.77777777777778" width="90.7752808988764" fill="white" stroke="#6B7279"/><rect class="cell" height="44.77777777777778" width="3" transform="translate(-3, 0)" fill="#6B7279" stroke="#6B7279"/><text font-size="7.8763420724094875" fill="black"><tspan x="4" y="11.296296296296298">T1564.008:</tspan><tspan x="4" y="25.88888888888889">Email</tspan><tspan x="4" y="40.48148148148148">Hiding Rules</tspan></text></g><g class="subtechnique T1550.001" transform="translate(15, 313.44444444444446)"><rect class="cell" height="44.77777777777778" width="90.7752808988764" fill="#9666ffff" stroke="#6B7279"/><rect class="cell" height="44.77777777777778" width="3" transform="translate(-3, 0)" fill="#6B7279" stroke="#6B7279"/><text font-size="7.8763420724094875" fill="black"><tspan x="4" y="11.296296296296298">T1550.001:</tspan><tspan x="4" y="25.88888888888889">Application</tspan><tspan x="4" y="40.48148148148148">Access Token</tspan></text></g><g class="subtechnique T1550.004" transform="translate(15, 358.22222222222223)"><rect class="cell" height="44.77777777777778" width="90.7752808988764" fill="white" stroke="#6B7279"/><rect class="cell" height="44.77777777777778" width="3" transform="translate(-3, 0)" fill="#6B7279" stroke="#6B7279"/><text font-size="7.8763420724094875" fill="black"><tspan x="4" y="11.296296296296298">T1550.004:</tspan><tspan x="4" y="25.88888888888889">Web Session</tspan><tspan x="4" y="40.48148148148148">Cookie</tspan></text></g><g class="subtechnique T1078.004" transform="translate(15, 447.77777777777777)"><rect class="cell" height="44.77777777777778" width="90.7752808988764" fill="#9666ffff" stroke="#6B7279"/><rect class="cell" height="44.77777777777778" width="3" transform="translate(-3, 0)" fill="#6B7279" stroke="#6B7279"/><text font-size="7.8763420724094875" fill="black"><tspan x="4" y="11.296296296296298">T1078.004:</tspan><tspan x="4" y="25.88888888888889">Cloud</tspan><tspan x="4" y="40.48148148148148">Accounts</tspan></text></g><g class="subtechnique T1078.001" transform="translate(15, 492.5555555555556)"><rect class="cell" height="44.77777777777778" width="90.7752808988764" fill="white" stroke="#6B7279"/><rect class="cell" height="44.77777777777778" width="3" transform="translate(-3, 0)" fill="#6B7279" stroke="#6B7279"/><text font-size="7.8763420724094875" fill="black"><tspan x="4" y="11.296296296296298">T1078.001:</tspan><tspan x="4" y="25.88888888888889">Default</tspan><tspan x="4" y="40.48148148148148">Accounts</tspan></text></g></g><g class="tactic-label"><text font-size="12" fill="black" font-weight="bold"><tspan text-anchor="middle" x="52.8876404494382" y="18.63888888888889">Defense</tspan><tspan text-anchor="middle" x="52.8876404494382" y="33.138888888888886">Evasion</tspan></text></g></g><g class="tactic credential-access" transform="translate(470.1123595505618, 0)"><g class="techniques"><g class="technique T1110" transform="translate(0, 44.77777777777778)"><rect class="cell" height="44.77777777777778" width="105.7752808988764" fill="#9666ffff" stroke="#6B7279"/><polygon class="sidebar" transform="translate(0, 44.77777777777778)" points="0,0 12,0 12,12" fill="#6B7279" visibility="visible"/><text font-size="7.8763420724094875" fill="black"><tspan x="4" y="18.63888888888889">T1110:</tspan><tspan x="4" y="33.138888888888886">Brute Force</tspan></text></g><g class="technique T1606" transform="translate(0, 268.66666666666663)"><rect class="cell" height="44.77777777777778" width="105.7752808988764" fill="white" stroke="#6B7279"/><polygon class="sidebar" transform="translate(0, 44.77777777777778)" points="0,0 12,0 12,12" fill="#6B7279" visibility="visible"/><text font-size="7.8763420724094875" fill="black"><tspan x="4" y="11.296296296296298">T1606:</tspan><tspan x="4" y="25.88888888888889">Forge Web</tspan><tspan x="4" y="40.48148148148148">Credentials</tspan></text></g><g class="technique T1621" transform="translate(0, 403)"><rect class="cell" height="44.77777777777778" width="105.7752808988764" fill="white" stroke="#6B7279"/><polygon class="sidebar" transform="translate(0, 44.77777777777778)" points="0,0 12,0 12,0" fill="#6B7279" visibility="hidden"/><text font-size="7.8763420724094875" fill="black"><tspan x="4" y="8.472222222222221">T1621:</tspan><tspan x="4" y="19.416666666666668">Multi-Factor</tspan><tspan x="4" y="30.36111111111111">Authentication</tspan><tspan x="4" y="41.30555555555556">Request Generation</tspan></text></g><g class="technique T1528" transform="translate(0, 447.77777777777777)"><rect class="cell" height="44.77777777777778" width="105.7752808988764" fill="#9666ffff" stroke="#6B7279"/><polygon class="sidebar" transform="translate(0, 44.77777777777778)" points="0,0 12,0 12,0" fill="#6B7279" visibility="hidden"/><text font-size="7.8763420724094875" fill="black"><tspan x="4" y="11.296296296296298">T1528: Steal</tspan><tspan x="4" y="25.88888888888889">Application</tspan><tspan x="4" y="40.48148148148148">Access Token</tspan></text></g><g class="technique T1539" transform="translate(0, 492.5555555555556)"><rect class="cell" height="44.77777777777778" width="105.7752808988764" fill="white" stroke="#6B7279"/><polygon class="sidebar" transform="translate(0, 44.77777777777778)" points="0,0 12,0 12,0" fill="#6B7279" visibility="hidden"/><text font-size="7.8763420724094875" fill="black"><tspan x="4" y="11.296296296296298">T1539: Steal</tspan><tspan x="4" y="25.88888888888889">Web Session</tspan><tspan x="4" y="40.48148148148148">Cookie</tspan></text></g><g class="technique T1552" transform="translate(0, 537.3333333333333)"><rect class="cell" height="44.77777777777778" width="105.7752808988764" fill="white" stroke="#6B7279"/><polygon class="sidebar" transform="translate(0, 44.77777777777778)" points="0,0 12,0 12,0" fill="#6B7279" visibility="visible"/><text font-size="7.8763420724094875" fill="black"><tspan x="4" y="11.296296296296298">T1552:</tspan><tspan x="4" y="25.88888888888889">Unsecured</tspan><tspan x="4" y="40.48148148148148">Credentials</tspan></text></g></g><g class="subtechniques"><g class="subtechnique T1110.004" transform="translate(15, 89.55555555555556)"><rect class="cell" height="44.77777777777778" width="90.7752808988764" fill="white" stroke="#6B7279"/><rect class="cell" height="44.77777777777778" width="3" transform="translate(-3, 0)" fill="#6B7279" stroke="#6B7279"/><text font-size="7.8763420724094875" fill="black"><tspan x="4" y="11.296296296296298">T1110.004:</tspan><tspan x="4" y="25.88888888888889">Credential</tspan><tspan x="4" y="40.48148148148148">Stuffing</tspan></text></g><g class="subtechnique T1110.002" transform="translate(15, 134.33333333333331)"><rect class="cell" height="44.77777777777778" width="90.7752808988764" fill="white" stroke="#6B7279"/><rect class="cell" height="44.77777777777778" width="3" transform="translate(-3, 0)" fill="#6B7279" stroke="#6B7279"/><text font-size="7.8763420724094875" fill="black"><tspan x="4" y="11.296296296296298">T1110.002:</tspan><tspan x="4" y="25.88888888888889">Password</tspan><tspan x="4" y="40.48148148148148">Cracking</tspan></text></g><g class="subtechnique T1110.001" transform="translate(15, 179.11111111111111)"><rect class="cell" height="44.77777777777778" width="90.7752808988764" fill="white" stroke="#6B7279"/><rect class="cell" height="44.77777777777778" width="3" transform="translate(-3, 0)" fill="#6B7279" stroke="#6B7279"/><text font-size="7.8763420724094875" fill="black"><tspan x="4" y="11.296296296296298">T1110.001:</tspan><tspan x="4" y="25.88888888888889">Password</tspan><tspan x="4" y="40.48148148148148">Guessing</tspan></text></g><g class="subtechnique T1110.003" transform="translate(15, 223.88888888888889)"><rect class="cell" height="44.77777777777778" width="90.7752808988764" fill="white" stroke="#6B7279"/><rect class="cell" height="44.77777777777778" width="3" transform="translate(-3, 0)" fill="#6B7279" stroke="#6B7279"/><text font-size="7.8763420724094875" fill="black"><tspan x="4" y="11.296296296296298">T1110.003:</tspan><tspan x="4" y="25.88888888888889">Password</tspan><tspan x="4" y="40.48148148148148">Spraying</tspan></text></g><g class="subtechnique T1606.002" transform="translate(15, 313.44444444444446)"><rect class="cell" height="44.77777777777778" width="90.7752808988764" fill="white" stroke="#6B7279"/><rect class="cell" height="44.77777777777778" width="3" transform="translate(-3, 0)" fill="#6B7279" stroke="#6B7279"/><text font-size="7.8763420724094875" fill="black"><tspan x="4" y="11.296296296296298">T1606.002:</tspan><tspan x="4" y="25.88888888888889">SAML</tspan><tspan x="4" y="40.48148148148148">Tokens</tspan></text></g><g class="subtechnique T1606.001" transform="translate(15, 358.22222222222223)"><rect class="cell" height="44.77777777777778" width="90.7752808988764" fill="white" stroke="#6B7279"/><rect class="cell" height="44.77777777777778" width="3" transform="translate(-3, 0)" fill="#6B7279" stroke="#6B7279"/><text font-size="7.8763420724094875" fill="black"><tspan x="4" y="11.296296296296298">T1606.001:</tspan><tspan x="4" y="25.88888888888889">Web</tspan><tspan x="4" y="40.48148148148148">Cookies</tspan></text></g></g><g class="tactic-label"><text font-size="12" fill="black" font-weight="bold"><tspan text-anchor="middle" x="52.8876404494382" y="18.63888888888889">Credential</tspan><tspan text-anchor="middle" x="52.8876404494382" y="33.138888888888886">Access</tspan></text></g></g><g class="tactic discovery" transform="translate(587.6404494382023, 0)"><g class="techniques"><g class="technique T1087" transform="translate(0, 44.77777777777778)"><rect class="cell" height="44.77777777777778" width="105.7752808988764" fill="white" stroke="#6B7279"/><polygon class="sidebar" transform="translate(0, 44.77777777777778)" points="0,0 12,0 12,12" fill="#6B7279" visibility="visible"/><text font-size="7.8763420724094875" fill="black"><tspan x="4" y="11.296296296296298">T1087:</tspan><tspan x="4" y="25.88888888888889">Account</tspan><tspan x="4" y="40.48148148148148">Discovery</tspan></text></g><g class="technique T1538" transform="translate(0, 179.11111111111111)"><rect class="cell" height="44.77777777777778" width="105.7752808988764" fill="white" stroke="#6B7279"/><polygon class="sidebar" transform="translate(0, 44.77777777777778)" points="0,0 12,0 12,0" fill="#6B7279" visibility="hidden"/><text font-size="7.8763420724094875" fill="black"><tspan x="4" y="11.296296296296298">T1538: Cloud</tspan><tspan x="4" y="25.88888888888889">Service</tspan><tspan x="4" y="40.48148148148148">Dashboard</tspan></text></g><g class="technique T1526" transform="translate(0, 223.88888888888889)"><rect class="cell" height="44.77777777777778" width="105.7752808988764" fill="white" stroke="#6B7279"/><polygon class="sidebar" transform="translate(0, 44.77777777777778)" points="0,0 12,0 12,0" fill="#6B7279" visibility="hidden"/><text font-size="7.8763420724094875" fill="black"><tspan x="4" y="11.296296296296298">T1526: Cloud</tspan><tspan x="4" y="25.88888888888889">Service</tspan><tspan x="4" y="40.48148148148148">Discovery</tspan></text></g><g class="technique T1069" transform="translate(0, 268.66666666666663)"><rect class="cell" height="44.77777777777778" width="105.7752808988764" fill="white" stroke="#6B7279"/><polygon class="sidebar" transform="translate(0, 44.77777777777778)" points="0,0 12,0 12,12" fill="#6B7279" visibility="visible"/><text font-size="7.8763420724094875" fill="black"><tspan x="4" y="8.472222222222221">T1069:</tspan><tspan x="4" y="19.416666666666668">Permission</tspan><tspan x="4" y="30.36111111111111">Groups</tspan><tspan x="4" y="41.30555555555556">Discovery</tspan></text></g><g class="technique T1518" transform="translate(0, 358.22222222222223)"><rect class="cell" height="44.77777777777778" width="105.7752808988764" fill="white" stroke="#6B7279"/><polygon class="sidebar" transform="translate(0, 44.77777777777778)" points="0,0 12,0 12,12" fill="#6B7279" visibility="visible"/><text font-size="7.8763420724094875" fill="black"><tspan x="4" y="11.296296296296298">T1518:</tspan><tspan x="4" y="25.88888888888889">Software</tspan><tspan x="4" y="40.48148148148148">Discovery</tspan></text></g></g><g class="subtechniques"><g class="subtechnique T1087.004" transform="translate(15, 89.55555555555556)"><rect class="cell" height="44.77777777777778" width="90.7752808988764" fill="#9666ffff" stroke="#6B7279"/><rect class="cell" height="44.77777777777778" width="3" transform="translate(-3, 0)" fill="#6B7279" stroke="#6B7279"/><text font-size="7.8763420724094875" fill="black"><tspan x="4" y="11.296296296296298">T1087.004:</tspan><tspan x="4" y="25.88888888888889">Cloud</tspan><tspan x="4" y="40.48148148148148">Account</tspan></text></g><g class="subtechnique T1087.003" transform="translate(15, 134.33333333333331)"><rect class="cell" height="44.77777777777778" width="90.7752808988764" fill="white" stroke="#6B7279"/><rect class="cell" height="44.77777777777778" width="3" transform="translate(-3, 0)" fill="#6B7279" stroke="#6B7279"/><text font-size="7.8763420724094875" fill="black"><tspan x="4" y="11.296296296296298">T1087.003:</tspan><tspan x="4" y="25.88888888888889">Email</tspan><tspan x="4" y="40.48148148148148">Account</tspan></text></g><g class="subtechnique T1069.003" transform="translate(15, 313.44444444444446)"><rect class="cell" height="44.77777777777778" width="90.7752808988764" fill="white" stroke="#6B7279"/><rect class="cell" height="44.77777777777778" width="3" transform="translate(-3, 0)" fill="#6B7279" stroke="#6B7279"/><text font-size="7.8763420724094875" fill="black"><tspan x="4" y="11.296296296296298">T1069.003:</tspan><tspan x="4" y="25.88888888888889">Cloud</tspan><tspan x="4" y="40.48148148148148">Groups</tspan></text></g><g class="subtechnique T1518.001" transform="translate(15, 403)"><rect class="cell" height="44.77777777777778" width="90.7752808988764" fill="white" stroke="#6B7279"/><rect class="cell" height="44.77777777777778" width="3" transform="translate(-3, 0)" fill="#6B7279" stroke="#6B7279"/><text font-size="7.8763420724094875" fill="black"><tspan x="4" y="8.472222222222221">T1518.001:</tspan><tspan x="4" y="19.416666666666668">Security</tspan><tspan x="4" y="30.36111111111111">Software</tspan><tspan x="4" y="41.30555555555556">Discovery</tspan></text></g></g><g class="tactic-label"><text font-size="12" fill="black" font-weight="bold"><tspan text-anchor="middle" x="52.8876404494382" y="25.88888888888889">Discovery</tspan></text></g></g><g class="tactic lateral-movement" transform="translate(705.1685393258426, 0)"><g class="techniques"><g class="technique T1534" transform="translate(0, 44.77777777777778)"><rect class="cell" height="44.77777777777778" width="105.7752808988764" fill="white" stroke="#6B7279"/><polygon class="sidebar" transform="translate(0, 44.77777777777778)" points="0,0 12,0 12,0" fill="#6B7279" visibility="hidden"/><text font-size="7.8763420724094875" fill="black"><tspan x="4" y="11.296296296296298">T1534:</tspan><tspan x="4" y="25.88888888888889">Internal</tspan><tspan x="4" y="40.48148148148148">Spearphishing</tspan></text></g><g class="technique T1080" transform="translate(0, 89.55555555555556)"><rect class="cell" height="44.77777777777778" width="105.7752808988764" fill="white" stroke="#6B7279"/><polygon class="sidebar" transform="translate(0, 44.77777777777778)" points="0,0 12,0 12,0" fill="#6B7279" visibility="hidden"/><text font-size="7.8763420724094875" fill="black"><tspan x="4" y="11.296296296296298">T1080:</tspan><tspan x="4" y="25.88888888888889">Taint Shared</tspan><tspan x="4" y="40.48148148148148">Content</tspan></text></g><g class="technique T1550" transform="translate(0, 134.33333333333331)"><rect class="cell" height="44.77777777777778" width="105.7752808988764" fill="#9666ffff" stroke="#6B7279"/><polygon class="sidebar" transform="translate(0, 44.77777777777778)" points="0,0 12,0 12,12" fill="#6B7279" visibility="visible"/><text font-size="7.8763420724094875" fill="black"><tspan x="4" y="8.472222222222221">T1550:</tspan><tspan x="4" y="19.416666666666668">Use Alternate</tspan><tspan x="4" y="30.36111111111111">Authentication</tspan><tspan x="4" y="41.30555555555556">Material</tspan></text></g></g><g class="subtechniques"><g class="subtechnique T1550.001" transform="translate(15, 179.11111111111111)"><rect class="cell" height="44.77777777777778" width="90.7752808988764" fill="#9666ffff" stroke="#6B7279"/><rect class="cell" height="44.77777777777778" width="3" transform="translate(-3, 0)" fill="#6B7279" stroke="#6B7279"/><text font-size="7.8763420724094875" fill="black"><tspan x="4" y="11.296296296296298">T1550.001:</tspan><tspan x="4" y="25.88888888888889">Application</tspan><tspan x="4" y="40.48148148148148">Access Token</tspan></text></g><g class="subtechnique T1550.004" transform="translate(15, 223.88888888888889)"><rect class="cell" height="44.77777777777778" width="90.7752808988764" fill="white" stroke="#6B7279"/><rect class="cell" height="44.77777777777778" width="3" transform="translate(-3, 0)" fill="#6B7279" stroke="#6B7279"/><text font-size="7.8763420724094875" fill="black"><tspan x="4" y="11.296296296296298">T1550.004:</tspan><tspan x="4" y="25.88888888888889">Web Session</tspan><tspan x="4" y="40.48148148148148">Cookie</tspan></text></g></g><g class="tactic-label"><text font-size="12" fill="black" font-weight="bold"><tspan text-anchor="middle" x="52.8876404494382" y="18.63888888888889">Lateral</tspan><tspan text-anchor="middle" x="52.8876404494382" y="33.138888888888886">Movement</tspan></text></g></g><g class="tactic collection" transform="translate(822.6966292134831, 0)"><g class="techniques"><g class="technique T1119" transform="translate(0, 44.77777777777778)"><rect class="cell" height="44.77777777777778" width="105.7752808988764" fill="white" stroke="#6B7279"/><polygon class="sidebar" transform="translate(0, 44.77777777777778)" points="0,0 12,0 12,0" fill="#6B7279" visibility="hidden"/><text font-size="7.8763420724094875" fill="black"><tspan x="4" y="11.296296296296298">T1119:</tspan><tspan x="4" y="25.88888888888889">Automated</tspan><tspan x="4" y="40.48148148148148">Collection</tspan></text></g><g class="technique T1213" transform="translate(0, 89.55555555555556)"><rect class="cell" height="44.77777777777778" width="105.7752808988764" fill="white" stroke="#6B7279"/><polygon class="sidebar" transform="translate(0, 44.77777777777778)" points="0,0 12,0 12,12" fill="#6B7279" visibility="visible"/><text font-size="7.8763420724094875" fill="black"><tspan x="4" y="8.472222222222221">T1213:</tspan><tspan x="4" y="19.416666666666668">Data from</tspan><tspan x="4" y="30.36111111111111">Information</tspan><tspan x="4" y="41.30555555555556">Repositories</tspan></text></g><g class="technique T1114" transform="translate(0, 268.66666666666663)"><rect class="cell" height="44.77777777777778" width="105.7752808988764" fill="white" stroke="#6B7279"/><polygon class="sidebar" transform="translate(0, 44.77777777777778)" points="0,0 12,0 12,12" fill="#6B7279" visibility="visible"/><text font-size="7.8763420724094875" fill="black"><tspan x="4" y="11.296296296296298">T1114:</tspan><tspan x="4" y="25.88888888888889">Email</tspan><tspan x="4" y="40.48148148148148">Collection</tspan></text></g></g><g class="subtechniques"><g class="subtechnique T1213.003" transform="translate(15, 134.33333333333331)"><rect class="cell" height="44.77777777777778" width="90.7752808988764" fill="white" stroke="#6B7279"/><rect class="cell" height="44.77777777777778" width="3" transform="translate(-3, 0)" fill="#6B7279" stroke="#6B7279"/><text font-size="7.8763420724094875" fill="black"><tspan x="4" y="11.296296296296298">T1213.003:</tspan><tspan x="4" y="25.88888888888889">Code</tspan><tspan x="4" y="40.48148148148148">Repositories</tspan></text></g><g class="subtechnique T1213.001" transform="translate(15, 179.11111111111111)"><rect class="cell" height="44.77777777777778" width="90.7752808988764" fill="white" stroke="#6B7279"/><rect class="cell" height="44.77777777777778" width="3" transform="translate(-3, 0)" fill="#6B7279" stroke="#6B7279"/><text font-size="7.8763420724094875" fill="black"><tspan x="4" y="18.63888888888889">T1213.001:</tspan><tspan x="4" y="33.138888888888886">Confluence</tspan></text></g><g class="subtechnique T1213.002" transform="translate(15, 223.88888888888889)"><rect class="cell" height="44.77777777777778" width="90.7752808988764" fill="white" stroke="#6B7279"/><rect class="cell" height="44.77777777777778" width="3" transform="translate(-3, 0)" fill="#6B7279" stroke="#6B7279"/><text font-size="7.8763420724094875" fill="black"><tspan x="4" y="18.63888888888889">T1213.002:</tspan><tspan x="4" y="33.138888888888886">Sharepoint</tspan></text></g><g class="subtechnique T1114.003" transform="translate(15, 313.44444444444446)"><rect class="cell" height="44.77777777777778" width="90.7752808988764" fill="white" stroke="#6B7279"/><rect class="cell" height="44.77777777777778" width="3" transform="translate(-3, 0)" fill="#6B7279" stroke="#6B7279"/><text font-size="7.8763420724094875" fill="black"><tspan x="4" y="8.472222222222221">T1114.003:</tspan><tspan x="4" y="19.416666666666668">Email</tspan><tspan x="4" y="30.36111111111111">Forwarding</tspan><tspan x="4" y="41.30555555555556">Rule</tspan></text></g><g class="subtechnique T1114.002" transform="translate(15, 358.22222222222223)"><rect class="cell" height="44.77777777777778" width="90.7752808988764" fill="white" stroke="#6B7279"/><rect class="cell" height="44.77777777777778" width="3" transform="translate(-3, 0)" fill="#6B7279" stroke="#6B7279"/><text font-size="7.8763420724094875" fill="black"><tspan x="4" y="11.296296296296298">T1114.002:</tspan><tspan x="4" y="25.88888888888889">Remote Email</tspan><tspan x="4" y="40.48148148148148">Collection</tspan></text></g></g><g class="tactic-label"><text font-size="12" fill="black" font-weight="bold"><tspan text-anchor="middle" x="52.8876404494382" y="25.88888888888889">Collection</tspan></text></g></g><g class="tactic impact" transform="translate(940.2247191011236, 0)"><g class="techniques"><g class="technique T1531" transform="translate(0, 44.77777777777778)"><rect class="cell" height="44.77777777777778" width="105.7752808988764" fill="#9666ffff" stroke="#6B7279"/><polygon class="sidebar" transform="translate(0, 44.77777777777778)" points="0,0 12,0 12,0" fill="#6B7279" visibility="hidden"/><text font-size="7.8763420724094875" fill="black"><tspan x="4" y="18.63888888888889">T1531: Account</tspan><tspan x="4" y="33.138888888888886">Access Removal</tspan></text></g><g class="technique T1499" transform="translate(0, 89.55555555555556)"><rect class="cell" height="44.77777777777778" width="105.7752808988764" fill="white" stroke="#6B7279"/><polygon class="sidebar" transform="translate(0, 44.77777777777778)" points="0,0 12,0 12,12" fill="#6B7279" visibility="visible"/><text font-size="7.8763420724094875" fill="black"><tspan x="4" y="10.296296296296298">T1499:</tspan><tspan x="4" y="24.88888888888889">Endpoint Denial</tspan><tspan x="4" y="39.48148148148148">of Service</tspan></text></g><g class="technique T1498" transform="translate(0, 268.66666666666663)"><rect class="cell" height="44.77777777777778" width="105.7752808988764" fill="white" stroke="#6B7279"/><polygon class="sidebar" transform="translate(0, 44.77777777777778)" points="0,0 12,0 12,12" fill="#6B7279" visibility="visible"/><text font-size="7.8763420724094875" fill="black"><tspan x="4" y="11.296296296296298">T1498:</tspan><tspan x="4" y="25.88888888888889">Network Denial</tspan><tspan x="4" y="40.48148148148148">of Service</tspan></text></g></g><g class="subtechniques"><g class="subtechnique T1499.003" transform="translate(15, 134.33333333333331)"><rect class="cell" height="44.77777777777778" width="90.7752808988764" fill="white" stroke="#6B7279"/><rect class="cell" height="44.77777777777778" width="3" transform="translate(-3, 0)" fill="#6B7279" stroke="#6B7279"/><text font-size="7.8763420724094875" fill="black"><tspan x="4" y="8.472222222222221">T1499.003:</tspan><tspan x="4" y="19.416666666666668">Application</tspan><tspan x="4" y="30.36111111111111">Exhaustion</tspan><tspan x="4" y="41.30555555555556">Flood</tspan></text></g><g class="subtechnique T1499.004" transform="translate(15, 179.11111111111111)"><rect class="cell" height="44.77777777777778" width="90.7752808988764" fill="white" stroke="#6B7279"/><rect class="cell" height="44.77777777777778" width="3" transform="translate(-3, 0)" fill="#6B7279" stroke="#6B7279"/><text font-size="7.8763420724094875" fill="black"><tspan x="4" y="8.472222222222221">T1499.004:</tspan><tspan x="4" y="19.416666666666668">Application</tspan><tspan x="4" y="30.36111111111111">or System</tspan><tspan x="4" y="41.30555555555556">Exploitation</tspan></text></g><g class="subtechnique T1499.002" transform="translate(15, 223.88888888888889)"><rect class="cell" height="44.77777777777778" width="90.7752808988764" fill="white" stroke="#6B7279"/><rect class="cell" height="44.77777777777778" width="3" transform="translate(-3, 0)" fill="#6B7279" stroke="#6B7279"/><text font-size="7.8763420724094875" fill="black"><tspan x="4" y="8.472222222222221">T1499.002:</tspan><tspan x="4" y="19.416666666666668">Service</tspan><tspan x="4" y="30.36111111111111">Exhaustion</tspan><tspan x="4" y="41.30555555555556">Flood</tspan></text></g><g class="subtechnique T1498.001" transform="translate(15, 313.44444444444446)"><rect class="cell" height="44.77777777777778" width="90.7752808988764" fill="white" stroke="#6B7279"/><rect class="cell" height="44.77777777777778" width="3" transform="translate(-3, 0)" fill="#6B7279" stroke="#6B7279"/><text font-size="7.8763420724094875" fill="black"><tspan x="4" y="10.296296296296298">T1498.001:</tspan><tspan x="4" y="24.88888888888889">Direct</tspan><tspan x="4" y="39.48148148148148">Network Flood</tspan></text></g><g class="subtechnique T1498.002" transform="translate(15, 358.22222222222223)"><rect class="cell" height="44.77777777777778" width="90.7752808988764" fill="white" stroke="#6B7279"/><rect class="cell" height="44.77777777777778" width="3" transform="translate(-3, 0)" fill="#6B7279" stroke="#6B7279"/><text font-size="7.8763420724094875" fill="black"><tspan x="4" y="10.296296296296298">T1498.002:</tspan><tspan x="4" y="24.88888888888889">Reflection</tspan><tspan x="4" y="39.48148148148148">Amplification</tspan></text></g></g><g class="tactic-label"><text font-size="12" fill="black" font-weight="bold"><tspan text-anchor="middle" x="52.8876404494382" y="25.88888888888889">Impact</tspan></text></g></g></g></g></g></svg>